<svg xmlns="http://www.w3.org/2000/svg" width="145" height="37" viewBox="0 0 145 37" fill="none">
    <path
        d="M0.5 4.93333C0.5 2.20873 2.696 0 5.40491 0H54.454C57.1629 0 59.3589 2.20873 59.3589 4.93333V32.0667C59.3589 34.7913 57.1629 37 54.454 37H5.4049C2.696 37 0.5 34.7913 0.5 32.0667V4.93333Z"
        fill="#080E1E" fill-opacity="0.05" />
    <path
        d="M13.4882 29.8664C12.5464 29.8664 11.9088 29.4323 11.5753 28.564L4.07077 8.9984C4.26697 8.89973 4.53183 8.81093 4.86537 8.732C5.1989 8.65306 5.49319 8.6136 5.74825 8.6136C7.2982 8.6136 8.2988 9.24506 8.75005 10.508L13.2822 23.2656L12.5759 25.16L12.8996 25.2784L18.1969 10.508C18.6678 9.24506 19.6684 8.6136 21.1987 8.6136C21.4538 8.6136 21.7481 8.65306 22.0816 8.732C22.4151 8.81093 22.6898 8.89973 22.9056 8.9984L15.4011 28.564C15.2441 28.9784 14.9989 29.304 14.6654 29.5408C14.3515 29.7579 13.9591 29.8664 13.4882 29.8664Z"
        fill="#4A4C56" />
    <path
        d="M29.2578 11.5736C29.2578 10.6461 29.6011 9.92587 30.2878 9.4128C30.9745 8.88 31.9457 8.6136 33.2013 8.6136V26.9064C33.2013 27.8536 32.858 28.5837 32.1713 29.0968C31.4846 29.6099 30.5134 29.8664 29.2578 29.8664V11.5736Z"
        fill="#4A4C56" />
    <path
        d="M48.2696 29.8664C46.5039 29.8664 44.9637 29.6493 43.6492 29.2152C42.3347 28.7811 41.3243 28.1693 40.618 27.38C39.9313 26.5709 39.588 25.6336 39.588 24.568C39.588 22.9499 40.6768 22.1408 42.8546 22.1408C42.9331 23.6405 43.4334 24.7752 44.3555 25.5448C45.2973 26.3144 46.6118 26.6992 48.2991 26.6992C49.6921 26.6992 50.7711 26.4624 51.5363 25.9888C52.3015 25.4955 52.6841 24.8147 52.6841 23.9464C52.6841 23.3741 52.5369 22.9104 52.2426 22.5552C51.9483 22.1803 51.448 21.8547 50.7417 21.5784C50.0354 21.2824 49.0054 20.9864 47.6516 20.6904C45.7289 20.2365 44.2084 19.7333 43.0901 19.1808C41.9914 18.6283 41.1968 17.9672 40.7063 17.1976C40.2158 16.4083 39.9705 15.4315 39.9705 14.2672C39.9705 13.1424 40.2943 12.1557 40.9417 11.3072C41.6088 10.4587 42.5407 9.7976 43.7375 9.324C44.9539 8.8504 46.3469 8.6136 47.9165 8.6136C49.4272 8.6136 50.7711 8.8208 51.9483 9.2352C53.1451 9.62987 54.0771 10.1923 54.7441 10.9224C55.4308 11.6525 55.7742 12.4912 55.7742 13.4384C55.7742 14.8987 54.7245 15.6584 52.6252 15.7176C52.5075 14.356 52.0759 13.3595 51.3303 12.728C50.5848 12.0965 49.4468 11.7808 47.9165 11.7808C46.602 11.7808 45.5916 11.9979 44.8853 12.432C44.179 12.8661 43.8258 13.4779 43.8258 14.2672C43.8258 14.8197 43.9631 15.2835 44.2378 15.6584C44.5125 16.0136 44.9735 16.3293 45.621 16.6056C46.2684 16.8621 47.1906 17.1285 48.3874 17.4048C50.4082 17.8587 52.0072 18.3717 53.1844 18.944C54.3615 19.4965 55.215 20.1773 55.7447 20.9864C56.2745 21.7757 56.5393 22.7525 56.5393 23.9168C56.5393 25.1205 56.196 26.1763 55.5093 27.084C54.8422 27.972 53.8809 28.6627 52.6252 29.156C51.3892 29.6296 49.9373 29.8664 48.2696 29.8664Z"
        fill="#4A4C56" />
    <path
        d="M68.5746 29.8664C67.0835 29.8664 65.7395 29.5803 64.5427 29.008C63.346 28.4357 62.4042 27.6563 61.7175 26.6696C61.0504 25.6632 60.7169 24.5384 60.7169 23.2952C60.7169 22.4664 61.0603 21.8843 61.747 21.5488C62.4533 21.2133 63.4342 21.0456 64.6899 21.0456C64.631 21.4008 64.6016 21.8547 64.6016 22.4072C64.6016 23.6899 64.9351 24.6765 65.6022 25.3672C66.2889 26.0579 67.2797 26.4032 68.5746 26.4032C69.8499 26.4032 70.8308 26.0381 71.5175 25.308C72.2042 24.5581 72.5476 23.4925 72.5476 22.1112V12.3136H69.5752C68.6531 12.3136 67.9664 12.0373 67.5151 11.4848C67.0639 10.9125 66.8382 10.0443 66.8382 8.88H74.5782C75.1079 8.88 75.5592 9.0576 75.9319 9.4128C76.3047 9.74827 76.4911 10.1725 76.4911 10.6856V22.1112C76.4911 23.5912 76.1478 24.9232 75.4611 26.1072C74.794 27.2715 73.8523 28.1891 72.6358 28.86C71.439 29.5309 70.0853 29.8664 68.5746 29.8664Z"
        fill="#4A4C56" />
    <path
        d="M90.8281 29.8664C89.2193 29.8664 87.7478 29.5507 86.4137 28.9192C85.0795 28.268 84.02 27.3899 83.2353 26.2848C82.4701 25.1797 82.0875 23.976 82.0875 22.6736V15.7768C82.0875 14.4744 82.4701 13.2805 83.2353 12.1952C84.02 11.0901 85.0795 10.2219 86.4137 9.5904C87.7478 8.9392 89.2193 8.6136 90.8281 8.6136C92.4369 8.6136 93.9083 8.9392 95.2425 9.5904C96.5962 10.2219 97.6557 11.0901 98.4209 12.1952C99.2056 13.2805 99.598 14.4744 99.598 15.7768V22.6736C99.598 23.976 99.2056 25.1797 98.4209 26.2848C97.6557 27.3899 96.5962 28.268 95.2425 28.9192C93.9083 29.5507 92.4369 29.8664 90.8281 29.8664ZM90.8281 26.4032C92.2995 26.4032 93.4767 26.0579 94.3596 25.3672C95.2425 24.6568 95.6839 23.7392 95.6839 22.6144V15.8656C95.6839 14.7211 95.2425 13.8035 94.3596 13.1128C93.4767 12.4024 92.2995 12.0472 90.8281 12.0472C89.3762 12.0472 88.2088 12.4024 87.326 13.1128C86.4431 13.8035 86.0016 14.7211 86.0016 15.8656V22.6144C86.0016 23.7392 86.4431 24.6568 87.326 25.3672C88.2088 26.0579 89.3762 26.4032 90.8281 26.4032Z"
        fill="#4A4C56" />
    <path
        d="M107.364 29.6C106.835 29.6 106.374 29.4224 105.981 29.0672C105.589 28.712 105.393 28.2877 105.393 27.7944V10.6856C105.393 10.1923 105.579 9.768 105.952 9.4128C106.344 9.0576 106.815 8.88 107.364 8.88H115.281C117.164 8.88 118.665 9.4128 119.784 10.4784C120.922 11.5243 121.491 12.9352 121.491 14.7112C121.491 15.5597 121.265 16.3688 120.814 17.1384C120.362 17.8883 119.764 18.4704 119.018 18.8848V18.9736C120.039 19.3288 120.843 19.9109 121.432 20.72C122.04 21.5291 122.344 22.4565 122.344 23.5024C122.344 24.6864 122.069 25.7421 121.52 26.6696C120.971 27.5971 120.205 28.3173 119.224 28.8304C118.243 29.3435 117.125 29.6 115.87 29.6H107.364ZM115.222 17.5824C115.87 17.5824 116.419 17.316 116.87 16.7832C117.341 16.2504 117.576 15.6091 117.576 14.8592C117.576 14.0501 117.361 13.4088 116.929 12.9352C116.517 12.4616 115.948 12.2248 115.222 12.2248H109.218V17.5824H115.222ZM115.811 26.2552C116.615 26.2552 117.253 26.0184 117.724 25.5448C118.194 25.0515 118.43 24.3805 118.43 23.532C118.43 22.7032 118.194 22.0619 117.724 21.608C117.272 21.1344 116.635 20.8976 115.811 20.8976H109.218V26.2552H115.811Z"
        fill="#4A4C56" />
    <path
        d="M136.23 29.8664C134.465 29.8664 132.924 29.6493 131.61 29.2152C130.295 28.7811 129.285 28.1693 128.579 27.38C127.892 26.5709 127.549 25.6336 127.549 24.568C127.549 22.9499 128.638 22.1408 130.815 22.1408C130.894 23.6405 131.394 24.7752 132.316 25.5448C133.258 26.3144 134.572 26.6992 136.26 26.6992C137.653 26.6992 138.732 26.4624 139.497 25.9888C140.262 25.4955 140.645 24.8147 140.645 23.9464C140.645 23.3741 140.498 22.9104 140.203 22.5552C139.909 22.1803 139.409 21.8547 138.702 21.5784C137.996 21.2824 136.966 20.9864 135.612 20.6904C133.69 20.2365 132.169 19.7333 131.051 19.1808C129.952 18.6283 129.157 17.9672 128.667 17.1976C128.176 16.4083 127.931 15.4315 127.931 14.2672C127.931 13.1424 128.255 12.1557 128.902 11.3072C129.569 10.4587 130.501 9.7976 131.698 9.324C132.915 8.8504 134.308 8.6136 135.877 8.6136C137.388 8.6136 138.732 8.8208 139.909 9.2352C141.106 9.62987 142.038 10.1923 142.705 10.9224C143.391 11.6525 143.735 12.4912 143.735 13.4384C143.735 14.8987 142.685 15.6584 140.586 15.7176C140.468 14.356 140.037 13.3595 139.291 12.728C138.545 12.0965 137.408 11.7808 135.877 11.7808C134.563 11.7808 133.552 11.9979 132.846 12.432C132.14 12.8661 131.786 13.4779 131.786 14.2672C131.786 14.8197 131.924 15.2835 132.198 15.6584C132.473 16.0136 132.934 16.3293 133.582 16.6056C134.229 16.8621 135.151 17.1285 136.348 17.4048C138.369 17.8587 139.968 18.3717 141.145 18.944C142.322 19.4965 143.176 20.1773 143.705 20.9864C144.235 21.7757 144.5 22.7525 144.5 23.9168C144.5 25.1205 144.157 26.1763 143.47 27.084C142.803 27.972 141.842 28.6627 140.586 29.156C139.35 29.6296 137.898 29.8664 136.23 29.8664Z"
        fill="#4A4C56" />
</svg>