<svg xmlns="http://www.w3.org/2000/svg" width="144" height="38" viewBox="0 0 144 38" fill="none">
  <path
    d="M0 5.43333C0 2.70873 2.196 0.5 4.90491 0.5H53.954C56.6629 0.5 58.8589 2.70873 58.8589 5.43333V32.5667C58.8589 35.2913 56.6629 37.5 53.954 37.5H4.9049C2.196 37.5 0 35.2913 0 32.5667V5.43333Z"
    fill="#164ED4" fill-opacity="0.15" />
  <path
    d="M12.9882 30.3664C12.0464 30.3664 11.4088 29.9323 11.0753 29.064L3.57077 9.4984C3.76697 9.39973 4.03183 9.31093 4.36537 9.232C4.6989 9.15306 4.99319 9.1136 5.24825 9.1136C6.7982 9.1136 7.7988 9.74506 8.25005 11.008L12.7822 23.7656L12.0759 25.66L12.3996 25.7784L17.6969 11.008C18.1678 9.74506 19.1684 9.1136 20.6987 9.1136C20.9538 9.1136 21.2481 9.15306 21.5816 9.232C21.9151 9.31093 22.1898 9.39973 22.4056 9.4984L14.9011 29.064C14.7441 29.4784 14.4989 29.804 14.1654 30.0408C13.8515 30.2579 13.4591 30.3664 12.9882 30.3664Z"
    fill="#164ED4" />
  <path
    d="M28.7578 12.0736C28.7578 11.1461 29.1011 10.4259 29.7878 9.9128C30.4745 9.38 31.4457 9.1136 32.7013 9.1136V27.4064C32.7013 28.3536 32.358 29.0837 31.6713 29.5968C30.9846 30.1099 30.0134 30.3664 28.7578 30.3664V12.0736Z"
    fill="#164ED4" />
  <path
    d="M47.7696 30.3664C46.0039 30.3664 44.4637 30.1493 43.1492 29.7152C41.8347 29.2811 40.8243 28.6693 40.118 27.88C39.4313 27.0709 39.088 26.1336 39.088 25.068C39.088 23.4499 40.1768 22.6408 42.3546 22.6408C42.4331 24.1405 42.9334 25.2752 43.8555 26.0448C44.7973 26.8144 46.1118 27.1992 47.7991 27.1992C49.1921 27.1992 50.2711 26.9624 51.0363 26.4888C51.8015 25.9955 52.1841 25.3147 52.1841 24.4464C52.1841 23.8741 52.0369 23.4104 51.7426 23.0552C51.4483 22.6803 50.948 22.3547 50.2417 22.0784C49.5354 21.7824 48.5054 21.4864 47.1516 21.1904C45.2289 20.7365 43.7084 20.2333 42.5901 19.6808C41.4914 19.1283 40.6968 18.4672 40.2063 17.6976C39.7158 16.9083 39.4705 15.9315 39.4705 14.7672C39.4705 13.6424 39.7943 12.6557 40.4417 11.8072C41.1088 10.9587 42.0407 10.2976 43.2375 9.824C44.4539 9.3504 45.8469 9.1136 47.4165 9.1136C48.9272 9.1136 50.2711 9.3208 51.4483 9.7352C52.6451 10.1299 53.5771 10.6923 54.2441 11.4224C54.9308 12.1525 55.2742 12.9912 55.2742 13.9384C55.2742 15.3987 54.2245 16.1584 52.1252 16.2176C52.0075 14.856 51.5759 13.8595 50.8303 13.228C50.0848 12.5965 48.9468 12.2808 47.4165 12.2808C46.102 12.2808 45.0916 12.4979 44.3853 12.932C43.679 13.3661 43.3258 13.9779 43.3258 14.7672C43.3258 15.3197 43.4631 15.7835 43.7378 16.1584C44.0125 16.5136 44.4735 16.8293 45.121 17.1056C45.7684 17.3621 46.6906 17.6285 47.8874 17.9048C49.9082 18.3587 51.5072 18.8717 52.6844 19.444C53.8615 19.9965 54.715 20.6773 55.2447 21.4864C55.7745 22.2757 56.0393 23.2525 56.0393 24.4168C56.0393 25.6205 55.696 26.6763 55.0093 27.584C54.3422 28.472 53.3809 29.1627 52.1252 29.656C50.8892 30.1296 49.4373 30.3664 47.7696 30.3664Z"
    fill="#164ED4" />
  <path
    d="M68.0746 30.3664C66.5835 30.3664 65.2395 30.0803 64.0427 29.508C62.846 28.9357 61.9042 28.1563 61.2175 27.1696C60.5505 26.1632 60.2169 25.0384 60.2169 23.7952C60.2169 22.9664 60.5603 22.3843 61.247 22.0488C61.9533 21.7133 62.9342 21.5456 64.1899 21.5456C64.131 21.9008 64.1016 22.3547 64.1016 22.9072C64.1016 24.1899 64.4351 25.1765 65.1022 25.8672C65.7889 26.5579 66.7797 26.9032 68.0746 26.9032C69.3499 26.9032 70.3308 26.5381 71.0175 25.808C71.7042 25.0581 72.0476 23.9925 72.0476 22.6112V12.8136H69.0752C68.1531 12.8136 67.4664 12.5373 67.0151 11.9848C66.5639 11.4125 66.3382 10.5443 66.3382 9.38H74.0782C74.6079 9.38 75.0592 9.5576 75.4319 9.9128C75.8047 10.2483 75.9911 10.6725 75.9911 11.1856V22.6112C75.9911 24.0912 75.6478 25.4232 74.9611 26.6072C74.294 27.7715 73.3523 28.6891 72.1358 29.36C70.939 30.0309 69.5853 30.3664 68.0746 30.3664Z"
    fill="#164ED4" />
  <path
    d="M90.3281 30.3664C88.7193 30.3664 87.2478 30.0507 85.9137 29.4192C84.5795 28.768 83.5201 27.8899 82.7353 26.7848C81.9701 25.6797 81.5875 24.476 81.5875 23.1736V16.2768C81.5875 14.9744 81.9701 13.7805 82.7353 12.6952C83.5201 11.5901 84.5795 10.7219 85.9137 10.0904C87.2478 9.4392 88.7193 9.1136 90.3281 9.1136C91.9369 9.1136 93.4083 9.4392 94.7425 10.0904C96.0962 10.7219 97.1557 11.5901 97.9209 12.6952C98.7056 13.7805 99.098 14.9744 99.098 16.2768V23.1736C99.098 24.476 98.7056 25.6797 97.9209 26.7848C97.1557 27.8899 96.0962 28.768 94.7425 29.4192C93.4083 30.0507 91.9369 30.3664 90.3281 30.3664ZM90.3281 26.9032C91.7995 26.9032 92.9767 26.5579 93.8596 25.8672C94.7425 25.1568 95.1839 24.2392 95.1839 23.1144V16.3656C95.1839 15.2211 94.7425 14.3035 93.8596 13.6128C92.9767 12.9024 91.7995 12.5472 90.3281 12.5472C88.8762 12.5472 87.7088 12.9024 86.826 13.6128C85.9431 14.3035 85.5016 15.2211 85.5016 16.3656V23.1144C85.5016 24.2392 85.9431 25.1568 86.826 25.8672C87.7088 26.5579 88.8762 26.9032 90.3281 26.9032Z"
    fill="#164ED4" />
  <path
    d="M106.864 30.1C106.335 30.1 105.874 29.9224 105.481 29.5672C105.089 29.212 104.893 28.7877 104.893 28.2944V11.1856C104.893 10.6923 105.079 10.268 105.452 9.9128C105.844 9.5576 106.315 9.38 106.864 9.38H114.781C116.664 9.38 118.165 9.9128 119.284 10.9784C120.422 12.0243 120.991 13.4352 120.991 15.2112C120.991 16.0597 120.765 16.8688 120.314 17.6384C119.862 18.3883 119.264 18.9704 118.518 19.3848V19.4736C119.539 19.8288 120.343 20.4109 120.932 21.22C121.54 22.0291 121.844 22.9565 121.844 24.0024C121.844 25.1864 121.569 26.2421 121.02 27.1696C120.471 28.0971 119.705 28.8173 118.724 29.3304C117.743 29.8435 116.625 30.1 115.37 30.1H106.864ZM114.722 18.0824C115.37 18.0824 115.919 17.816 116.37 17.2832C116.841 16.7504 117.076 16.1091 117.076 15.3592C117.076 14.5501 116.861 13.9088 116.429 13.4352C116.017 12.9616 115.448 12.7248 114.722 12.7248H108.718V18.0824H114.722ZM115.311 26.7552C116.115 26.7552 116.753 26.5184 117.224 26.0448C117.694 25.5515 117.93 24.8805 117.93 24.032C117.93 23.2032 117.694 22.5619 117.224 22.108C116.772 21.6344 116.135 21.3976 115.311 21.3976H108.718V26.7552H115.311Z"
    fill="#164ED4" />
  <path
    d="M135.73 30.3664C133.965 30.3664 132.424 30.1493 131.11 29.7152C129.795 29.2811 128.785 28.6693 128.079 27.88C127.392 27.0709 127.049 26.1336 127.049 25.068C127.049 23.4499 128.138 22.6408 130.315 22.6408C130.394 24.1405 130.894 25.2752 131.816 26.0448C132.758 26.8144 134.072 27.1992 135.76 27.1992C137.153 27.1992 138.232 26.9624 138.997 26.4888C139.762 25.9955 140.145 25.3147 140.145 24.4464C140.145 23.8741 139.998 23.4104 139.703 23.0552C139.409 22.6803 138.909 22.3547 138.202 22.0784C137.496 21.7824 136.466 21.4864 135.112 21.1904C133.19 20.7365 131.669 20.2333 130.551 19.6808C129.452 19.1283 128.657 18.4672 128.167 17.6976C127.676 16.9083 127.431 15.9315 127.431 14.7672C127.431 13.6424 127.755 12.6557 128.402 11.8072C129.069 10.9587 130.001 10.2976 131.198 9.824C132.415 9.3504 133.808 9.1136 135.377 9.1136C136.888 9.1136 138.232 9.3208 139.409 9.7352C140.606 10.1299 141.538 10.6923 142.205 11.4224C142.891 12.1525 143.235 12.9912 143.235 13.9384C143.235 15.3987 142.185 16.1584 140.086 16.2176C139.968 14.856 139.537 13.8595 138.791 13.228C138.045 12.5965 136.908 12.2808 135.377 12.2808C134.063 12.2808 133.052 12.4979 132.346 12.932C131.64 13.3661 131.286 13.9779 131.286 14.7672C131.286 15.3197 131.424 15.7835 131.698 16.1584C131.973 16.5136 132.434 16.8293 133.082 17.1056C133.729 17.3621 134.651 17.6285 135.848 17.9048C137.869 18.3587 139.468 18.8717 140.645 19.444C141.822 19.9965 142.676 20.6773 143.205 21.4864C143.735 22.2757 144 23.2525 144 24.4168C144 25.6205 143.657 26.6763 142.97 27.584C142.303 28.472 141.342 29.1627 140.086 29.656C138.85 30.1296 137.398 30.3664 135.73 30.3664Z"
    fill="#164ED4" />
</svg>